# xmcd
#
# Track frame offsets: 
#        182
#        18537
#        34467
#        53212
#        67570
#        80650
#        99190
#        120357
#        138852
#        155995
#
# Disc length: 2269 seconds
#
# Revision: 4
# Processed by: cddbd v1.5.2PL0 Copyright (c) Steve Scherf et al.
# Submitted via: ExactAudioCopyFreeDBPlugin 1.0
#
DISCID=7b08db0a
DTITLE=The Marshall Tucker Band - Still Smokin'
DYEAR=1992
DGENRE=Country
TTITLE0=Frontline
TTITLE1=Two Hearts Fallen
TTITLE2=Tan Yard Road
TTITLE3=Full Moon Rising
TTITLE4=Carolina Party
TTITLE5=I Love You
TTITLE6=Can't Take It Anymore
TTITLE7=Driving You Out of My Mind
TTITLE8=Southern Spirit
TTITLE9=Let Me Come Home
EXTD=
EXTT0=
EXTT1=
EXTT2=
EXTT3=
EXTT4=
EXTT5=
EXTT6=
EXTT7=
EXTT8=
EXTT9=
PLAYORDER=
